<svg viewBox="0 0 1560 830" xmlns="http://www.w3.org/2000/svg" role="img" aria-labelledby="title desc">
  <title id="title">ci-cd advanced architecture diagram</title>
  <desc id="desc">Developer pushes to GitHub repository, triggering a GitHub Actions pipeline of build, test, and deploy jobs. The deploy job exchanges a GitHub OIDC token with an AWS IAM OIDC provider to assume an IAM role, which syncs the build to a private S3 bucket read only by CloudFront via Origin Access Control, serving visitors over HTTPS. Terraform provisions and manages the OIDC provider, IAM role, S3 bucket, and CloudFront distribution.</desc>
  <defs><marker id="arrow-94a3b8" viewBox="0 0 10 10" refX="8" refY="5" markerWidth="7" markerHeight="7" orient="auto-start-reverse"><path d="M0,0 L10,5 L0,10 z" fill="#94a3b8"/></marker>
<marker id="arrow-8b5cf6" viewBox="0 0 10 10" refX="8" refY="5" markerWidth="7" markerHeight="7" orient="auto-start-reverse"><path d="M0,0 L10,5 L0,10 z" fill="#8b5cf6"/></marker>
<marker id="arrow-22d3ee" viewBox="0 0 10 10" refX="8" refY="5" markerWidth="7" markerHeight="7" orient="auto-start-reverse"><path d="M0,0 L10,5 L0,10 z" fill="#22d3ee"/></marker>
<marker id="arrow-fb7185" viewBox="0 0 10 10" refX="8" refY="5" markerWidth="7" markerHeight="7" orient="auto-start-reverse"><path d="M0,0 L10,5 L0,10 z" fill="#fb7185"/></marker>
<marker id="arrow-fbbf24" viewBox="0 0 10 10" refX="8" refY="5" markerWidth="7" markerHeight="7" orient="auto-start-reverse"><path d="M0,0 L10,5 L0,10 z" fill="#fbbf24"/></marker>
<marker id="arrow-34d399" viewBox="0 0 10 10" refX="8" refY="5" markerWidth="7" markerHeight="7" orient="auto-start-reverse"><path d="M0,0 L10,5 L0,10 z" fill="#34d399"/></marker>
<marker id="arrow-38bdf8" viewBox="0 0 10 10" refX="8" refY="5" markerWidth="7" markerHeight="7" orient="auto-start-reverse"><path d="M0,0 L10,5 L0,10 z" fill="#38bdf8"/></marker>
<marker id="arrow-c084fc" viewBox="0 0 10 10" refX="8" refY="5" markerWidth="7" markerHeight="7" orient="auto-start-reverse"><path d="M0,0 L10,5 L0,10 z" fill="#c084fc"/></marker>
<marker id="arrow-f87171" viewBox="0 0 10 10" refX="8" refY="5" markerWidth="7" markerHeight="7" orient="auto-start-reverse"><path d="M0,0 L10,5 L0,10 z" fill="#f87171"/></marker>
<marker id="arrow-e2e8f0" viewBox="0 0 10 10" refX="8" refY="5" markerWidth="7" markerHeight="7" orient="auto-start-reverse"><path d="M0,0 L10,5 L0,10 z" fill="#e2e8f0"/></marker></defs>
  <rect width="1560" height="830" fill="none"/>

  <rect x="30" y="40" width="300" height="170" rx="16"
        fill="#94a3b80D" stroke="#94a3b8" stroke-opacity="0.55"
        stroke-width="1.6" stroke-dasharray="7 5"/>
  <rect x="48" y="27" width="95" height="24" rx="6" fill="#94a3b8"/>
  <text x="60" y="43" font-family="Segoe UI, -apple-system, sans-serif" font-size="12.5" font-weight="700" fill="#08090c">1 · SOURCE</text>

  <g>
    <rect x="58" y="95" width="120" height="95" rx="12" fill="#000" opacity="0.18"/>
    <rect x="55" y="90" width="120" height="95" rx="12" fill="#12161f" stroke="#94a3b8" stroke-opacity="0.55" stroke-width="1.4"/>
    <rect x="55" y="90" width="120" height="4" rx="2" fill="#94a3b8"/>
    <rect x="69" y="106" width="34" height="34" rx="9" fill="#94a3b8" fill-opacity="0.15"/>
    <g transform="translate(77, 114) scale(0.75)" fill="none" stroke="#94a3b8" stroke-width="1.7" stroke-linecap="round" stroke-linejoin="round"><rect x="3" y="4" width="18" height="13" rx="1.5"/><path d="M8 20h8M12 17v3"/><path d="M7.5 9l2 2-2 2M12.5 13h3"/></g>
    <text x="69" y="158" font-family="Segoe UI, -apple-system, sans-serif" font-size="15" font-weight="700" fill="#e7e9ee">Developer</text>
    <text x="69" y="171" font-family="Segoe UI, -apple-system, sans-serif" font-size="11" fill="#9399a8">git push</text>
  </g>

  <g>
    <rect x="198" y="95" width="115" height="95" rx="12" fill="#000" opacity="0.18"/>
    <rect x="195" y="90" width="115" height="95" rx="12" fill="#12161f" stroke="#94a3b8" stroke-opacity="0.55" stroke-width="1.4"/>
    <rect x="195" y="90" width="115" height="4" rx="2" fill="#94a3b8"/>
    <rect x="209" y="106" width="34" height="34" rx="9" fill="#94a3b8" fill-opacity="0.15"/>
    <g transform="translate(217, 114) scale(0.75)" fill="none" stroke="#94a3b8" stroke-width="1.7" stroke-linecap="round" stroke-linejoin="round"><circle cx="7" cy="6" r="2.2"/><circle cx="7" cy="18" r="2.2"/><circle cx="17" cy="12" r="2.2"/><path d="M7 8.2V15.8M7 12h6.5a3.5 3.5 0 003.3-2.3"/></g>
    <text x="209" y="158" font-family="Segoe UI, -apple-system, sans-serif" font-size="15" font-weight="700" fill="#e7e9ee">Repository</text>
    <text x="209" y="171" font-family="Segoe UI, -apple-system, sans-serif" font-size="11" fill="#9399a8">Hardikrepo/ci-cd</text>
  </g>
  <path d="M175,137.5 L195,137.5" fill="none" stroke="#94a3b8" stroke-width="2"  marker-end="url(#arrow-94a3b8)"/>

  <rect x="360" y="40" width="780" height="170" rx="16"
        fill="#8b5cf60D" stroke="#8b5cf6" stroke-opacity="0.55"
        stroke-width="1.6" stroke-dasharray="7 5"/>
  <rect x="378" y="27" width="272.5" height="24" rx="6" fill="#8b5cf6"/>
  <text x="390" y="43" font-family="Segoe UI, -apple-system, sans-serif" font-size="12.5" font-weight="700" fill="#08090c">2 · CI/CD PIPELINE — GitHub Actions</text>

  <g>
    <rect x="388" y="95" width="220" height="95" rx="12" fill="#000" opacity="0.18"/>
    <rect x="385" y="90" width="220" height="95" rx="12" fill="#12161f" stroke="#8b5cf6" stroke-opacity="0.55" stroke-width="1.4"/>
    <rect x="385" y="90" width="220" height="4" rx="2" fill="#8b5cf6"/>
    <rect x="399" y="106" width="34" height="34" rx="9" fill="#8b5cf6" fill-opacity="0.15"/>
    <g transform="translate(407, 114) scale(0.75)" fill="none" stroke="#8b5cf6" stroke-width="1.7" stroke-linecap="round" stroke-linejoin="round"><path d="M4 4h16v4H4zM4 10h10v10H4zM16 10h4v10h-4z"/></g>
    <text x="399" y="158" font-family="Segoe UI, -apple-system, sans-serif" font-size="15" font-weight="700" fill="#e7e9ee">build</text>
    <text x="399" y="171" font-family="Segoe UI, -apple-system, sans-serif" font-size="11" fill="#9399a8">html-validate + package</text>
  </g>

  <g>
    <rect x="648" y="95" width="220" height="95" rx="12" fill="#000" opacity="0.18"/>
    <rect x="645" y="90" width="220" height="95" rx="12" fill="#12161f" stroke="#22d3ee" stroke-opacity="0.55" stroke-width="1.4"/>
    <rect x="645" y="90" width="220" height="4" rx="2" fill="#22d3ee"/>
    <rect x="659" y="106" width="34" height="34" rx="9" fill="#22d3ee" fill-opacity="0.15"/>
    <g transform="translate(667, 114) scale(0.75)" fill="none" stroke="#22d3ee" stroke-width="1.7" stroke-linecap="round" stroke-linejoin="round"><path d="M9 12l2 2 4-4M12 3l8 4v5c0 5-3.5 8.5-8 9-4.5-.5-8-4-8-9V7l8-4z"/></g>
    <text x="659" y="158" font-family="Segoe UI, -apple-system, sans-serif" font-size="15" font-weight="700" fill="#e7e9ee">test</text>
    <text x="659" y="171" font-family="Segoe UI, -apple-system, sans-serif" font-size="11" fill="#9399a8">linkinator link check</text>
  </g>

  <g>
    <rect x="908" y="95" width="210" height="95" rx="12" fill="#000" opacity="0.18"/>
    <rect x="905" y="90" width="210" height="95" rx="12" fill="#12161f" stroke="#fb7185" stroke-opacity="0.55" stroke-width="1.4"/>
    <rect x="905" y="90" width="210" height="4" rx="2" fill="#fb7185"/>
    <rect x="919" y="106" width="34" height="34" rx="9" fill="#fb7185" fill-opacity="0.15"/>
    <g transform="translate(927, 114) scale(0.75)" fill="none" stroke="#fb7185" stroke-width="1.7" stroke-linecap="round" stroke-linejoin="round"><path d="M12 3v12m0 0l-4-4m4 4l4-4M5 21h14"/></g>
    <text x="919" y="158" font-family="Segoe UI, -apple-system, sans-serif" font-size="15" font-weight="700" fill="#e7e9ee">deploy</text>
    <text x="919" y="171" font-family="Segoe UI, -apple-system, sans-serif" font-size="11" fill="#9399a8">runs on push to main only</text>
  </g>
  <path d="M605,137.5 L645,137.5" fill="none" stroke="#8b5cf6" stroke-width="2"  marker-end="url(#arrow-8b5cf6)"/>
  <path d="M865,137.5 L905,137.5" fill="none" stroke="#22d3ee" stroke-width="2"  marker-end="url(#arrow-22d3ee)"/>
  <path d="M310,137.5 L385,137.5" fill="none" stroke="#94a3b8" stroke-width="2"  marker-end="url(#arrow-94a3b8)"/>

  <rect x="312.05" y="127.5" width="70.9" height="20" rx="10" fill="#0b0e14" stroke="#94a3b8" stroke-opacity="0.5" stroke-width="1"/>
  <text x="347.5" y="141.5" text-anchor="middle" font-family="ui-monospace, Consolas, monospace" font-size="10.5" fill="#94a3b8">push / PR</text>

  <rect x="360" y="270" width="340" height="210" rx="16"
        fill="#fbbf240D" stroke="#fbbf24" stroke-opacity="0.55"
        stroke-width="1.6" stroke-dasharray="7 5"/>
  <rect x="378" y="257" width="237" height="24" rx="6" fill="#fbbf24"/>
  <text x="390" y="273" font-family="Segoe UI, -apple-system, sans-serif" font-size="12.5" font-weight="700" fill="#08090c">3 · IDENTITY &amp; TRUST — AWS IAM</text>

  <g>
    <rect x="388" y="330" width="145" height="90" rx="12" fill="#000" opacity="0.18"/>
    <rect x="385" y="325" width="145" height="90" rx="12" fill="#12161f" stroke="#fbbf24" stroke-opacity="0.55" stroke-width="1.4"/>
    <rect x="385" y="325" width="145" height="4" rx="2" fill="#fbbf24"/>
    <rect x="399" y="341" width="34" height="34" rx="9" fill="#fbbf24" fill-opacity="0.15"/>
    <g transform="translate(407, 349) scale(0.75)" fill="none" stroke="#fbbf24" stroke-width="1.7" stroke-linecap="round" stroke-linejoin="round"><circle cx="7.5" cy="7.5" r="3.2"/><path d="M9.8 9.8L20 20M14.5 15.5l2.2-2.2M17.7 18.7l2.2-2.2"/></g>
    <text x="399" y="393" font-family="Segoe UI, -apple-system, sans-serif" font-size="15" font-weight="700" fill="#e7e9ee">OIDC Provider</text>
    <text x="399" y="401" font-family="Segoe UI, -apple-system, sans-serif" font-size="11" fill="#9399a8">GitHub OIDC issuer</text>
  </g>

  <g>
    <rect x="548" y="330" width="130" height="90" rx="12" fill="#000" opacity="0.18"/>
    <rect x="545" y="325" width="130" height="90" rx="12" fill="#12161f" stroke="#fbbf24" stroke-opacity="0.55" stroke-width="1.4"/>
    <rect x="545" y="325" width="130" height="4" rx="2" fill="#fbbf24"/>
    <rect x="559" y="341" width="34" height="34" rx="9" fill="#fbbf24" fill-opacity="0.15"/>
    <g transform="translate(567, 349) scale(0.75)" fill="none" stroke="#fbbf24" stroke-width="1.7" stroke-linecap="round" stroke-linejoin="round"><rect x="6" y="11" width="12" height="9" rx="2"/><path d="M8 11V8a4 4 0 118 0v3"/></g>
    <text x="559" y="393" font-family="Segoe UI, -apple-system, sans-serif" font-size="15" font-weight="700" fill="#e7e9ee">IAM Role</text>
    <text x="559" y="401" font-family="Segoe UI, -apple-system, sans-serif" font-size="11" fill="#9399a8">deploy-permissions</text>
  </g>
  <path d="M530,370 L545,370" fill="none" stroke="#fbbf24" stroke-width="2"  marker-end="url(#arrow-fbbf24)"/>

  <text x="380" y="443" font-family="ui-monospace, Consolas, monospace" font-size="9.5" fill="#9399a8">sub == repo:Hardikrepo/ci-cd</text>
  <text x="380" y="456" font-family="ui-monospace, Consolas, monospace" font-size="9.5" fill="#9399a8">:environment:production</text>
  <path d="M965,185 L415,325" fill="none" stroke="#fbbf24" stroke-width="2" stroke-dasharray="6 5" marker-end="url(#arrow-fbbf24)"/>

  <rect x="605.75" y="245" width="168.5" height="20" rx="10" fill="#0b0e14" stroke="#fbbf24" stroke-opacity="0.5" stroke-width="1"/>
  <text x="690" y="259" text-anchor="middle" font-family="ui-monospace, Consolas, monospace" font-size="10.5" fill="#fbbf24">AssumeRoleWithWebIdentity</text>

  <rect x="740" y="270" width="460" height="210" rx="16"
        fill="#34d3990D" stroke="#34d399" stroke-opacity="0.55"
        stroke-width="1.6" stroke-dasharray="7 5"/>
  <rect x="758" y="257" width="222.79999999999998" height="24" rx="6" fill="#34d399"/>
  <text x="770" y="273" font-family="Segoe UI, -apple-system, sans-serif" font-size="12.5" font-weight="700" fill="#08090c">4 · STORAGE &amp; DELIVERY — AWS</text>

  <g>
    <rect x="768" y="330" width="165" height="100" rx="12" fill="#000" opacity="0.18"/>
    <rect x="765" y="325" width="165" height="100" rx="12" fill="#12161f" stroke="#34d399" stroke-opacity="0.55" stroke-width="1.4"/>
    <rect x="765" y="325" width="165" height="4" rx="2" fill="#34d399"/>
    <rect x="779" y="341" width="34" height="34" rx="9" fill="#34d399" fill-opacity="0.15"/>
    <g transform="translate(787, 349) scale(0.75)" fill="none" stroke="#34d399" stroke-width="1.7" stroke-linecap="round" stroke-linejoin="round"><ellipse cx="12" cy="6" rx="8" ry="3"/><path d="M4 6v10c0 1.7 3.6 3 8 3s8-1.3 8-3V6"/></g>
    <text x="779" y="393" font-family="Segoe UI, -apple-system, sans-serif" font-size="15" font-weight="700" fill="#e7e9ee">S3 (private)</text>
    <text x="779" y="411" font-family="Segoe UI, -apple-system, sans-serif" font-size="11" fill="#9399a8">all public access blocked</text>
  </g>

  <g>
    <rect x="988" y="330" width="190" height="100" rx="12" fill="#000" opacity="0.18"/>
    <rect x="985" y="325" width="190" height="100" rx="12" fill="#12161f" stroke="#38bdf8" stroke-opacity="0.55" stroke-width="1.4"/>
    <rect x="985" y="325" width="190" height="4" rx="2" fill="#38bdf8"/>
    <rect x="999" y="341" width="34" height="34" rx="9" fill="#38bdf8" fill-opacity="0.15"/>
    <g transform="translate(1007, 349) scale(0.75)" fill="none" stroke="#38bdf8" stroke-width="1.7" stroke-linecap="round" stroke-linejoin="round"><path d="M6.5 17a4 4 0 01-.3-8 5 5 0 019.7-1.7A4.3 4.3 0 0117.5 17h-11z"/><path d="M12 10v7M9.3 14h5.4"/></g>
    <text x="999" y="393" font-family="Segoe UI, -apple-system, sans-serif" font-size="15" font-weight="700" fill="#e7e9ee">CloudFront</text>
    <text x="999" y="411" font-family="Segoe UI, -apple-system, sans-serif" font-size="11" fill="#9399a8">HTTPS edge cache</text>
  </g>
  <path d="M930,375 L985,375" fill="none" stroke="#34d399" stroke-width="2"  marker-end="url(#arrow-34d399)"/>

  <rect x="885.45" y="365" width="144.1" height="20" rx="10" fill="#0b0e14" stroke="#34d399" stroke-opacity="0.5" stroke-width="1"/>
  <text x="957.5" y="379" text-anchor="middle" font-family="ui-monospace, Consolas, monospace" font-size="10.5" fill="#34d399">Origin Access Control</text>
  <path d="M675,370 L765,375" fill="none" stroke="#fbbf24" stroke-width="2"  marker-end="url(#arrow-fbbf24)"/>

  <rect x="663.2" y="362.5" width="113.6" height="20" rx="10" fill="#0b0e14" stroke="#fbbf24" stroke-opacity="0.5" stroke-width="1"/>
  <text x="720" y="376.5" text-anchor="middle" font-family="ui-monospace, Consolas, monospace" font-size="10.5" fill="#fbbf24">s3 sync --delete</text>

  <rect x="758" y="318" width="179" height="114" rx="14" fill="none" stroke="#f87171" stroke-width="1.4" stroke-dasharray="3 4" opacity="0.8"/>

  <rect x="1250" y="270" width="280" height="210" rx="16"
        fill="#e2e8f00D" stroke="#e2e8f0" stroke-opacity="0.55"
        stroke-width="1.6" stroke-dasharray="7 5"/>
  <rect x="1268" y="257" width="109.19999999999999" height="24" rx="6" fill="#e2e8f0"/>
  <text x="1280" y="273" font-family="Segoe UI, -apple-system, sans-serif" font-size="12.5" font-weight="700" fill="#08090c">5 · END USER</text>

  <g>
    <rect x="1283" y="335" width="210" height="95" rx="12" fill="#000" opacity="0.18"/>
    <rect x="1280" y="330" width="210" height="95" rx="12" fill="#12161f" stroke="#e2e8f0" stroke-opacity="0.55" stroke-width="1.4"/>
    <rect x="1280" y="330" width="210" height="4" rx="2" fill="#e2e8f0"/>
    <rect x="1294" y="346" width="34" height="34" rx="9" fill="#e2e8f0" fill-opacity="0.15"/>
    <g transform="translate(1302, 354) scale(0.75)" fill="none" stroke="#e2e8f0" stroke-width="1.7" stroke-linecap="round" stroke-linejoin="round"><rect x="3" y="5" width="18" height="14" rx="2"/><path d="M3 9h18"/><circle cx="6" cy="7" r="0.6"/><circle cx="8.4" cy="7" r="0.6"/></g>
    <text x="1294" y="398" font-family="Segoe UI, -apple-system, sans-serif" font-size="15" font-weight="700" fill="#e7e9ee">Visitor</text>
    <text x="1294" y="411" font-family="Segoe UI, -apple-system, sans-serif" font-size="11" fill="#9399a8">GET https://…cloudfront.net</text>
  </g>
  <path d="M1175,375 L1280,377.5" fill="none" stroke="#38bdf8" stroke-width="2"  marker-end="url(#arrow-38bdf8)"/>

  <rect x="1204.25" y="366.25" width="46.5" height="20" rx="10" fill="#0b0e14" stroke="#38bdf8" stroke-opacity="0.5" stroke-width="1"/>
  <text x="1227.5" y="380.25" text-anchor="middle" font-family="ui-monospace, Consolas, monospace" font-size="10.5" fill="#38bdf8">HTTPS</text>

  <rect x="360" y="550" width="1170" height="200" rx="16"
        fill="#c084fc0D" stroke="#c084fc" stroke-opacity="0.55"
        stroke-width="1.6" stroke-dasharray="7 5"/>
  <rect x="378" y="537" width="293.8" height="24" rx="6" fill="#c084fc"/>
  <text x="390" y="553" font-family="Segoe UI, -apple-system, sans-serif" font-size="12.5" font-weight="700" fill="#08090c">6 · INFRASTRUCTURE AS CODE — Terraform</text>

  <g>
    <rect x="388" y="610" width="190" height="100" rx="12" fill="#000" opacity="0.18"/>
    <rect x="385" y="605" width="190" height="100" rx="12" fill="#12161f" stroke="#c084fc" stroke-opacity="0.55" stroke-width="1.4"/>
    <rect x="385" y="605" width="190" height="4" rx="2" fill="#c084fc"/>
    <rect x="399" y="621" width="34" height="34" rx="9" fill="#c084fc" fill-opacity="0.15"/>
    <g transform="translate(407, 629) scale(0.75)" fill="none" stroke="#c084fc" stroke-width="1.7" stroke-linecap="round" stroke-linejoin="round"><rect x="4.5" y="4.5" width="6" height="6" rx="1"/><rect x="13.5" y="4.5" width="6" height="6" rx="1"/><rect x="9" y="13.5" width="6" height="6" rx="1"/></g>
    <text x="399" y="673" font-family="Segoe UI, -apple-system, sans-serif" font-size="15" font-weight="700" fill="#e7e9ee">terraform apply</text>
    <text x="399" y="691" font-family="Segoe UI, -apple-system, sans-serif" font-size="11" fill="#9399a8">terraform/main.tf</text>
  </g>
  <path d="M480,605 Q468.75,430 457.5,415" fill="none" stroke="#c084fc" stroke-width="2" stroke-dasharray="6 5" marker-end="url(#arrow-c084fc)"/>
  <path d="M480,605 Q545,430 610,415" fill="none" stroke="#c084fc" stroke-width="2" stroke-dasharray="6 5" marker-end="url(#arrow-c084fc)"/>
  <path d="M480,605 Q663.75,435 847.5,425" fill="none" stroke="#c084fc" stroke-width="2" stroke-dasharray="6 5" marker-end="url(#arrow-c084fc)"/>
  <path d="M480,605 Q780,435 1080,425" fill="none" stroke="#c084fc" stroke-width="2" stroke-dasharray="6 5" marker-end="url(#arrow-c084fc)"/>

  <text x="610" y="622" font-family="Segoe UI, -apple-system, sans-serif" font-size="11.5" fill="#9399a8" font-style="italic">
    provisions &amp; reconciles every resource above — one `terraform apply` rebuilds the whole stack
  </text>
<text x="360" y="772" font-family="Segoe UI, -apple-system, sans-serif" font-size="12" font-weight="700" fill="#9399a8">LEGEND</text>
<rect x="385" y="780" width="12" height="12" rx="3" fill="#94a3b8"/>
  <text x="403" y="790" font-family="Segoe UI, -apple-system, sans-serif" font-size="11.5" fill="#9399a8">Source</text>
<rect x="470.6" y="780" width="12" height="12" rx="3" fill="#8b5cf6"/>
  <text x="488.6" y="790" font-family="Segoe UI, -apple-system, sans-serif" font-size="11.5" fill="#9399a8">CI job</text>
<rect x="556.2" y="780" width="12" height="12" rx="3" fill="#22d3ee"/>
  <text x="574.2" y="790" font-family="Segoe UI, -apple-system, sans-serif" font-size="11.5" fill="#9399a8">Test job</text>
<rect x="655" y="780" width="12" height="12" rx="3" fill="#fb7185"/>
  <text x="673" y="790" font-family="Segoe UI, -apple-system, sans-serif" font-size="11.5" fill="#9399a8">Deploy job</text>
<rect x="767" y="780" width="12" height="12" rx="3" fill="#fbbf24"/>
  <text x="785" y="790" font-family="Segoe UI, -apple-system, sans-serif" font-size="11.5" fill="#9399a8">Identity/Trust</text>
<rect x="905.4" y="780" width="12" height="12" rx="3" fill="#34d399"/>
  <text x="923.4" y="790" font-family="Segoe UI, -apple-system, sans-serif" font-size="11.5" fill="#9399a8">Storage</text>
<rect x="997.5999999999999" y="780" width="12" height="12" rx="3" fill="#38bdf8"/>
  <text x="1015.5999999999999" y="790" font-family="Segoe UI, -apple-system, sans-serif" font-size="11.5" fill="#9399a8">Delivery</text>
<rect x="1096.3999999999999" y="780" width="12" height="12" rx="3" fill="#c084fc"/>
  <text x="1114.3999999999999" y="790" font-family="Segoe UI, -apple-system, sans-serif" font-size="11.5" fill="#9399a8">IaC (dashed)</text>
<rect x="1221.6" y="780" width="12" height="12" rx="3" fill="#f87171"/>
  <text x="1239.6" y="790" font-family="Segoe UI, -apple-system, sans-serif" font-size="11.5" fill="#9399a8">Security boundary</text>
</svg>
